<?xml version="1.0" encoding="UTF-8"?>
<svg id="Default" xmlns="http://www.w3.org/2000/svg" viewBox="0 0 1000 600">
  <defs>
    <style>
      .cls-1 {
        fill: none;
      }

      .cls-2 {
        fill: #e1eaf2;
      }

      .cls-3 {
        fill: #a5c84b;
      }

      .cls-4 {
        fill: #050606;
      }

      .cls-5 {
        fill: #7ab740;
      }

      .cls-6 {
        fill: #7cb43f;
      }

      .cls-7 {
        fill: #acc46f;
      }

      .cls-8 {
        fill: #e0eaec;
      }

      .cls-9 {
        fill: #040405;
      }

      .cls-10 {
        fill: #a2c550;
      }

      .cls-11 {
        fill: #7ab446;
      }

      .cls-12 {
        fill: #a3c652;
      }

      .cls-13 {
        fill: #ced5da;
      }

      .cls-14 {
        fill: #070808;
      }

      .cls-15 {
        fill: #93af61;
      }

      .cls-16 {
        fill: #7ab546;
      }

      .cls-17 {
        fill: #7bb14a;
      }

      .cls-18 {
        fill: #cdd4d8;
      }

      .cls-19 {
        fill: #e0ebf1;
      }

      .cls-20 {
        fill: #aac66f;
      }

      .cls-21 {
        fill: #a1c750;
      }

      .cls-22 {
        fill: #070809;
      }

      .cls-23 {
        fill: #a6c567;
      }

      .cls-24 {
        fill: #e1eaf6;
      }

      .cls-25 {
        fill: #a4c74f;
      }

      .cls-26 {
        fill: #a2c84f;
      }

      .cls-27 {
        fill: #dee9f2;
      }

      .cls-28 {
        fill: #a6c953;
      }

      .cls-29 {
        fill: #e1ebf2;
      }

      .cls-30 {
        fill: #a2c654;
      }

      .cls-31 {
        fill: #ccd0d7;
      }

      .cls-32 {
        fill: #fffefa;
      }

      .cls-33 {
        fill: #040505;
      }

      .cls-34 {
        fill: #fdfdf7;
      }

      .cls-35 {
        fill: #e0e8f4;
      }

      .cls-36 {
        fill: #dee5e8;
      }

      .cls-37 {
        fill: #dfebf1;
      }

      .cls-38 {
        fill: #dfe9f0;
      }

      .cls-39 {
        fill: #96c045;
      }

      .cls-40 {
        fill: #d9e4e9;
      }

      .cls-41 {
        fill: #dfe8f1;
      }

      .cls-42 {
        fill: #7ab246;
      }

      .cls-43 {
        fill: #76a154;
      }

      .cls-44 {
        fill: #070a09;
      }

      .cls-45 {
        fill: #dfe7ed;
      }

      .cls-46 {
        fill: #dee7eb;
      }

      .cls-47 {
        fill: #dee7f1;
      }

      .cls-48 {
        fill: #a1c258;
      }

      .cls-49 {
        fill: #ced8da;
      }

      .cls-50 {
        fill: #79b543;
      }

      .cls-51 {
        fill: #7bb63d;
      }

      .cls-52 {
        fill: #cfd8de;
      }
    </style>
  </defs>
  <path class="cls-1" d="M500.42,598.98c-105.42,0-210.84-.18-316.27.28-10.22.04-12.05-2.66-12.04-12.31.31-191.24.3-382.49.03-573.73-.01-9.29,1.27-12.5,11.86-12.48,210.84.4,421.69.39,632.53.01,9.8-.02,11.26,2.37,11.25,11.53-.31,191.77-.37,383.55.1,575.32.03,11.22-4.05,11.57-12.79,11.55-104.89-.24-209.78-.16-314.68-.16Z"/>
  <path class="cls-44" d="M669.71,267.37c7.84.67,9.73,7.42,12.71,12.79,18.41,33.2,36.76,66.42,54.93,99.75,8.89,16.3,4.55,23.64-14.15,23.65-153.05.08-306.11.07-459.16,0-19.11,0-23.69-7.67-14.73-24.86,40.94-78.54,82.07-156.99,123.09-235.49,3.22-6.16,6.12-12.96,14.24-13.24,8.73-.29,12.48,6.14,15.99,13.08,10.23,20.2,20.85,40.2,31.86,61.33,31.09-55.3,61.49-109.52,92.08-163.63,3.24-5.72,5.13-13.52,13.72-13.83,9.68-.35,11.36,8.26,14.74,14.43,34.21,62.41,68.25,124.91,102.4,187.36,3.58,6.54,8.16,12.81,1.64,20.09-8.15,6.04-12.3.19-16.51-5.5-2.37-3.86-3.47-8.39-6.23-12.04-.91-.66-1.88-1.22-2.97-1.5-3.29.36-5.16,2.84-7.36,4.82-2.38,2.36-4.4,4.98-6.17,7.82-6.64,9.22-15.17,16.65-23.23,24.54-5.39,4.24-10.28,3.79-14.67-1.57-4.24-5.18-9.05-9.77-14.54-13.62-1.14-.9-2.11-1.97-2.99-3.12-4.85-9.69-11.69-17.63-20.91-23.45-2.27-1.94-3.89-4.35-5.19-7-14.62-23.88-20.7-24.21-38.17-2.02-.8,1.31-1.71,2.52-2.7,3.69-16.12,13.23-18.37,13.17-36.13-.96-2.21-1.88-2.81-6.45-6.69-5.37-3.92,1.09-5.25,5-5.22,8.72.04,5.95,3.97,10.59,6.22,15.79,4.28,9.38,9.19,18.42,14.78,27.09,11.82,22.79,23.1,45.86,35.48,68.35,2.56,7.14,5.75,13.99,9.69,20.49,4.98,7.39,7.69,16.01,12.91,23.26,5.7,5.45,12.88,4.14,19.63,4.16,48.19.14,96.37-.03,144.53.09,3.12-.01,6.28.06,9.43.18,10.63.4,9.59-5.24,6.23-12.01-6.31-12.72-13.66-24.86-20.74-37.15-8.66-15.02-16.65-30.42-24.81-45.69-4-7.48-8.28-17.64,6.94-19.44Z"/>
  <path class="cls-22" d="M519.72,427.22c-27.23.06-48.5,21.12-48.41,47.9.1,27.03,21.15,47.58,48.69,47.55,27.39-.06,48.47-20.86,48.38-47.77-.1-26.75-21.53-47.77-48.66-47.68ZM519.95,509.92c-19.78.06-34.76-15.58-34.19-35.62.6-20.64,15.62-35.11,35.59-34.32,19.05.76,33.01,16.03,32.63,35.65-.35,19.66-14.82,34.22-34.03,34.29Z"/>
  <path class="cls-33" d="M305.4,478.32c-5.09-4.04-3.59-5.79-.57-10.46,11.99-18.38,2.16-37.98-19.91-40.3-8.4-.89-16.95.03-25.41-.38-8.52-.45-11.13,3.63-10.91,11.51.35,11.64.1,23.31.1,34.99v14.31c0,38.61,1.3,39.82,40.04,34.35,10.56-1.46,19.27-6.3,23.22-16.73,3.85-10.31,2.42-20.23-6.55-27.29ZM274.55,439.58c11.42-.38,21.47,1.05,21.56,13.84.13,14.79-11.32,14.44-22.42,15.49-14.28,1.37-11.07-7.79-11.83-15.78-1.05-10.85,2.23-16.25,12.69-13.55ZM276.77,510.28c-8.52,1.02-16.79,1.18-15.04-13.04,1.08-8.78-2-18.35,12.95-16.6,10.97,1.3,24.2-1.37,24.59,14.92.32,13.77-10.46,15.14-22.49,14.73Z"/>
  <path class="cls-14" d="M405.21,441.52c-7,12.42-13.06,23.37-19.32,34.2-3.56,6.15-4.89,15.3-14.1,15.27-8.47-.02-9.09-9.13-14.06-15.62-6.55,11.81-12.95,23.05-19.04,34.44-2.94,5.49-5.52,13.48-12.99,9.56-6.91-3.63-1.63-10.12.97-15.08,5.88-11.19,11.49-22.54,17.95-33.39,3.33-5.58,4.21-14.51,12.55-14.96,9.51-.51,9.42,9.86,15.32,16.13,7.06-12.55,13.74-24.9,20.87-36.99,8.31-14.09,15.72-14.11,23.54-.12,13.1,23.46,25.85,47.12,39.07,70.51,3.07,5.43,6.26,12.45.98,15.43-5.83,3.29-9.71-3.71-12.61-8.97-12.63-22.89-25.38-45.71-39.13-70.41Z"/>
  <path class="cls-4" d="M745.13,508.58c-6.81-8.08-13.33-16.38-21.15-26.08,12.72-8.11,20.16-18.54,17.11-33.49-2.51-12.44-11.93-18.89-23.31-20.96-9.26-1.69-19.02-.76-28.53-.73-6.11,0-8.05,3.88-8.05,9.45.06,25.41.06,50.83,0,76.24,0,4.68,1.21,8.87,6.36,9.26,5.57.41,6.81-4.04,6.93-8.56.16-5.31-.51-10.69.25-15.87.67-4.52-4.01-11.26,4.1-13.17,6.87-1.62,11.9,1.14,16,7.12,5.98,8.68,12.79,16.83,19.27,25.16,3.02,3.88,6.39,8.27,11.61,4.01,4.64-3.78,2.89-8.21-.6-12.37ZM705.95,472.42c-16.06,1.21-10.43-9.96-11.07-14.73-.8-11.39-2.13-19.66,11.58-18.45,11.13.99,20.29,3.34,20.61,16.13.35,13.93-9.35,16.19-21.12,17.05Z"/>
  <path class="cls-9" d="M582.03,462.2c0-6.34-.33-12.71.1-19.03.39-5.78-2.89-14.89,6.26-15.29,9.67-.43,6.73,8.8,6.87,14.54.34,13.21-.12,26.44.17,39.65.39,18.44,9.03,28.04,24.87,28.23,16.56.2,25.59-9.7,25.9-28.91.23-14.27.1-28.55.02-42.82-.03-4.97.05-10.3,6.22-10.94,6.89-.72,7.1,5.01,7.1,9.82,0,17.44.69,34.95-.57,52.31-1.49,20.52-17.75,33.36-39.3,32.9-20.75-.44-35.57-13.49-37.17-33.51-.71-8.93-.12-17.96-.12-26.94-.11,0-.23,0-.34,0Z"/>
  <path class="cls-17" d="M643.37,239.41c4.13,4.99,7.15,11.83,15.72,9.41,3.55,6.19,7.11,12.37,10.64,18.56-11.78,4.81-6.5,12.24-2.75,19.12,14.31,26.23,28.88,52.31,43.07,78.61,3.12,5.78,9.93,12,5.69,18.52-4.11,6.32-12.39,2.69-18.95,2.46-.9-1.26-1.37-2.67-1.42-4.22.29-1.52,1.02-2.8,2.08-3.89,7.35-4.57,3.53-9.79.69-14.75-14.28-24.95-26.96-50.77-41.39-75.64-.55-1.43-.93-2.91-1.2-4.41-.65-4.49-.54-9.02-.6-13.53,2.46-11.88-9.6-14.2-14.19-21.44-1.46-2.75-2.56-5.55-1.43-8.71,1.33-1.08,2.67-1.1,4.04-.07Z"/>
  <path class="cls-32" d="M489.42,409.67c3.24-.33,4.1,1.71,4.62,3.55.27.94-.69,2.23-1.09,3.36-1.48-1.16-3.26-2.11-4.32-3.57-.47-.64.52-2.33.78-3.34Z"/>
  <path class="cls-34" d="M719.35,417.2c-1.17-1.77-2.4-2.81-2.5-3.96-.19-2.1.8-4.13,3.34-3.42.89.25,1.76,2.34,1.72,3.56-.03,1.08-1.35,2.12-2.55,3.82Z"/>
  <path class="cls-3" d="M522.66,376.35c-3.36-7.33-6.72-14.67-10.09-22-2.34-6.74-4.9-13.37-9.18-19.17-14.13-21.73-25.32-44.98-35.73-68.64-2.98-10-7.63-19.1-14.51-26.99-3.51-8.05-13.14-14.87-5.15-25.25,2.42-3.14,2.7-9.5,7.34-8.93,4.8.59,7.34,5.38,6.81,10.79.7,2.15,2.7,3.06,4.21,4.44,14.58,13.31,18.07,12.88,30.25-3.68.02-1.02.41-1.85,1.19-2.51,1.33-.84,2.56-1.82,3.7-2.9,20.17-19.04,21.37-18.86,38.72,5.6,1.5,1.91,3,3.82,4.5,5.73.5.93,1.88,1.81,1.82,2.4-1.61,15.51,7.38,21.49,20.87,23.54l-.34-.33c7.14,6.5,1.32,10.88-2.67,16.67,11.36-6.84,20.93,9.25,32.34,1.39,5.34-1.45,8.4-4.85,11.22-9.78,6.94-12.12,14.77-11.86,21.3.71,5.99,11.53,11.87,23.08,19.08,33.93,1.72,10.07-2.16,22.58,11.92,27.25,2.67,19.48,18.63,31.79,26.22,48.61,5.3,11.75,2.77,15.36-11.9,15.4-41.27.11-82.54.35-123.81-.15-4.21-.05-8.44-1.07-12.41,1.16-7.83,3.19-11.3-3.05-15.71-7.25Z"/>
  <path class="cls-3" d="M328.91,306.03c2.64-.36,5.14-.44,5.8,3.02,4.29,4.09,8.4,4.95,12.13-.7,4.41-4.4,8.93-8.69,13.2-13.22,8.35-8.86,16.26-18.21,27.88-3.54,3.19,4.03,8.79,1.87,13.38,1.64,11.1-.06,15.08,11.34,23.97,14.85.73.78.97,1.57.72,2.35-.25.78-.49,1.18-.74,1.18-4.91.81-5.28,4.4-4.82,8.25,2.36,19.54,28.29,31.98,44.86,21.57,10.27,5.14,24.49,31.78,21.86,41.38-.41,1.51-2.64,1.37-4.23,1.47-64.64-.04-129.26.04-193.88-.05-16.05-.02-16.92-1.24-14.53-17.32,9.61-18.05,19.23-36.1,28.84-54.14,6.3-10.67,15.59-9.96,25.55-6.72Z"/>
  <path class="cls-29" d="M531.03,176.25c-13.81-12.48-21.76-.83-30.53,7.42-14.06-5.7-12.08,6.54-14.94,13.36-.14,1.44-.64,2.75-1.54,3.9-5.84,7.48-8.38.14-11.36-2.84-5.68-5.69-9.85-11.46-4.61-20.43,20.67-35.36,40.82-71.03,61.16-106.58,7.01-4.05,9.73,1.54,12.01,6.01,22.74,44.66,47.19,88.42,69.84,133.12,1.7,3.36,3.12,6.81.21,10.3-3.19,3.95-6.48,7.84-9.56,11.88-8.81,11.56-16.59,12.99-22.87-2.14,1.67-3.08.4-4.78-2.66-5.65-3.07-2.58-6.08-5.22-9.56-7.24-4.15-1.38-4.78-5.49-6.69-8.61-2.03-4.14.66-7.9,1.05-12.3-3.91-1.41-6.56,4.94-10.56,1.95-.94-1.07-1.89-2.14-2.83-3.21,6.91-5.75-6.03-13.23,1.57-18.86.7-1.25,2.69-.57,3.35-2.06-1.41.48-2.93.62-4.32,1.44-5.72,1.86-11.37,3.56-17.16.54Z"/>
  <path class="cls-52" d="M611.27,220.51c-16.33-31.5-32.66-63-49-94.5-7.94-15.3-16.23-30.42-23.66-45.96-2.2-4.6-3.71-8.61-9.39-8.98,3.39-6.41,6.78-12.82,11.31-21.41,11.51,20.91,22.13,40.11,32.65,59.36,14.38,26.3,27.83,53.15,43.35,78.76,8.36,13.79,8.65,23.73-5.26,32.72Z"/>
  <path class="cls-19" d="M425.95,310.01c-11.64-.57-15.62-12.38-24.64-16.78-.52-16.27-14.42-29.62-31.3-30.06-1.24-.94-1.98-2.18-2.23-3.72,1.91-8.83,9.5-14.63,12.19-23.21,1.87-5.97,7.7-6.17,13.12-5.72,5.15.43,10.11,2.61,15.41,1.65,6.46,1.7,8.68,7.32,11.46,12.42,2.44,6.73,5.24,13.3,9.4,19.21,2.84,4.42,5.63,8.87,5.47,14.42-1.78,9.6-3.71,19.17-5.62,28.75-.7,1.43-1.79,2.43-3.25,3.04Z"/>
  <path class="cls-13" d="M417.29,245.94c-3.18-4.26-6.37-8.52-9.55-12.78-5.58-3.93-7.78-10.34-11.51-15.63-2.87-8.1-6.7-15.77-10.56-23.43-2.78-7.19-8.89-12.95-9.23-21.2,3.37-6.98,6.75-13.97,11.33-23.46,15.9,32.06,30.86,62.21,45.81,92.35,1.35,2.47.18,4.01-1.92,5.22-4.85.43-9.84,2.75-14.38-1.08Z"/>
  <path class="cls-38" d="M369.54,258.66c.15,1.5.31,3,.46,4.51-6.06,5.76-11.96,11.71-18.24,17.23-5.09,4.47-9.09,11.77-17.99,3.82-7.59-6.78-11.69-11.9-5.04-21.98,7.39-11.19,13.06-23.52,19.47-35.36,1.84-1.75,3.87-1.93,6.07-.75,16.29,5.59,11.92,20.87,15.26,32.54Z"/>
  <path class="cls-2" d="M369.54,258.66c-1.83-1.44-7.27,3.6-5.82-4.45,1.47-8.14,5.49-19.5-9.52-21.35-.43-.05-.39-3.92-.57-6-.82-.72-1.18-1.51-1.08-2.37.11-.9.28-1.34.5-1.35,7.84-3.23,5.2-10.05,5.44-15.89,1.9-8.23,6.86-14.85,11.42-21.68,8.65-.23,6.72,5.48,5.99,10.55,4.4,10.28,5.85,23.6,22.32,21.07,6.28,3.47,8.36,9.45,9.51,15.97-.05.52-.09,1.05-.14,1.57-22.34-7.38-27.64,12.35-38.06,23.93Z"/>
  <path class="cls-18" d="M433.1,277.76c-2.09-4.27-4.18-8.53-6.28-12.8-1.1-6-2.54-12.08,3.37-16.67,6.19.92,8.82,6,12.07,10.34,8.01,14.73,16.11,29.4,24,44.2,6.53,12.24-3.85,16.29-10.92,21.87-7.29-9.23-10.97-20.67-18.41-29.81-3.33-5.24-4.89-10.89-3.84-17.12Z"/>
  <path class="cls-39" d="M487.24,382.66c-7.74-13.52-12.48-28.64-21.94-41.25,1.97-2.13,3.93-4.27,5.89-6.4,3.47-2.47,7.02-2.61,10.66-.39,8.78,16.53,17.56,33.06,26.34,49.59-5.63,3.44-10.21,2.76-14.83,1.67-1.41-2.29-4.73-.93-6.13-3.24Z"/>
  <path class="cls-23" d="M487.24,382.66c2.53.16,4.94.54,6.13,3.24-75.56,0-151.13,0-226.94,0,0-7.91,5.62-12.79,8.1-19.01-1.42,14.43,6.55,16.18,18.83,16.07,64.62-.55,129.26-.28,193.88-.3Z"/>
  <path class="cls-21" d="M646.23,290.49c-12.06-4.87-12.2-18.14-18.35-27.13-3.12-4.57-4.76-11.44-10.19-12.32-7.28-1.19-7.05,7.01-7.92,11.3-2.08,10.27-9.17,5.18-14.41,5.88-.91-.81-1.26-1.66-1.04-2.55.22-.91.47-1.37.75-1.37,7.82-8.22,15.65-16.44,23.47-24.66,1.92-1.79,4.01-1.95,6.26-.67,9,12.04,13.3,26.91,23.21,38.42,1.54,3.83,1.8,7.64-.1,11.43-.56.56-1.12,1.12-1.68,1.68Z"/>
  <path class="cls-7" d="M522.66,376.35c5.8.52,8.53,8.57,15.46,6.3,14.56-3.3,29.31-1.09,43.96-1.39,35.85-.74,71.72.88,107.56-.89,2.84-.14,5.13.77,7.27,2.42-.04,1.1-.08,2.2-.12,3.3-53.06.22-106.11.3-159.16.79-8.14.07-12.75-3.08-14.98-10.52Z"/>
  <path class="cls-46" d="M439.55,293.57c7.6,9.19,14.98,18.48,15.8,31.12-6.28,7.38-10.71,2.3-14.32-2.66-4.06-5.59-7.87-10.89-15.76-10.43.49-.41.72-.94.68-1.59,0,0,1.18-.93,1.18-.93,5.12-4.38,7.49-10.96,12.41-15.5Z"/>
  <path class="cls-25" d="M567.42,248.76c-7.22-1.99-14.3-3.43-19.19,6.68-5.5-11.76-3.34-22.32-3.5-32.62,11.45,5.24,18.71,14.16,22.69,25.94Z"/>
  <path class="cls-25" d="M595.08,264.29c.1,1.31.2,2.62.29,3.93-7.34,11.17-15.36-4.9-23.71.49-2.32,1.5-8.72-.01-13.45,1.06-2.11-10.17,15.28-10.61,8.87-21.32,9.37,1.04,13.29,9.63,18.4,15.3,4.61,5.12,6.35,2.17,9.6.56Z"/>
  <path class="cls-12" d="M328.91,306.03c-7.21,7.19-18.77-2.12-25.55,6.72,1.19-2.9,1.95-6.09,3.68-8.63,2.86-4.19,3.85-12.57,8.66-11.81,6.05.96,12.35,5.73,13.2,13.72Z"/>
  <path class="cls-41" d="M550.84,175.96c-4.47,5.84,4.99,14.03-3.25,19.23-6.29-5.64-12.87-11.03-16.56-18.94,6.61-1.14,12.81-4.61,19.81-3.46,1.1.7,1.46,1.41,1.1,2.11-.36.7-.73,1.06-1.1,1.06Z"/>
  <path class="cls-48" d="M540.23,217.1c-1.6-1.34-3.29-2.57-4.78-4.02-15.22-14.88-15.29-14.97-31.04-.23-2.24,2.1-3.89,3.14-6.6,1.55.74-1.39,1.27-2.95,2.24-4.14,18.17-22.4,27.19-20.85,40.18,6.85Z"/>
  <path class="cls-30" d="M496.62,216.9c-1.84,7.87-4.36,15.92-14.04,16.06-10.9.15-16.16-8.08-20.42-16.81,11.28,9.76,22.68,14.06,34.46.75Z"/>
  <path class="cls-47" d="M484,198.23c-2.84-6.76-.84-13.96,2.83-18.55,2.12-2.66,11.25-4.96,13.67,3.99-2.41,2.7-4.81,5.4-7.22,8.09-3,2.3-5.81,4.85-9.28,6.47Z"/>
  <path class="cls-42" d="M623.94,239.63c-1.8,0-3.6,0-5.4,0,1.9-2.09,3.8-4.19,5.69-6.28,4.26-1.87,6.3-8.06,12.39-6.38h0c1.69,4.02,4.18,7.83,3.32,12.53,1.04,2.16,2.07,4.33,3.11,6.49-9.17,6.33-13.51-1.9-19.1-6.35Z"/>
  <path class="cls-45" d="M372.73,195.05c2.41-4.15,2.11-7.5-2.81-9.48,2.17-4.22,4.34-8.45,6.52-12.67,4.04,6.33,8.08,12.65,12.12,18.98-5.9-2.06-9.66,6.55-15.83,3.17Z"/>
  <path class="cls-41" d="M550.42,198.41c.93-.5,2-.84,2.77-1.52,3.31-2.93,5.86-9.36,11.11-5.95,5.66,3.67-.59,8.07-1.62,12.11-.51,2-1.8,3.81-2.74,5.7-3.17-3.45-6.34-6.9-9.51-10.35Z"/>
  <path class="cls-10" d="M453.15,239.54c9.28,6.61,15.72,14.74,14.51,26.99-6.36-8.18-10.68-17.45-14.51-26.99Z"/>
  <path class="cls-38" d="M358.5,207.25q5.73,14.49-4.86,16.43c-1.93-2.09.34-4.28-.15-6.41-.87-4.61,2.32-7.19,5.01-10.02Z"/>
  <path class="cls-31" d="M442.26,258.63c-4.09-3.17-8.19-6.34-12.28-9.51-.76-1.06-.76-2.11,0-3.17,1.2-1.38,2.4-2.77,3.6-4.15,4.3,4.89,7.79,10.19,8.68,16.83Z"/>
  <path class="cls-27" d="M576.31,223.67c4.64-2.24,10.07-2.38,10.91,3.07.68,4.43-5.25,2.78-8.38,3.52-.9-1.02-1.8-2.04-2.7-3.07-.89-.83-1.16-1.62-.82-2.39.34-.75.67-1.13.98-1.13Z"/>
  <path class="cls-20" d="M503.4,335.17c7.26,4.38,9.36,11.23,9.18,19.17-4.24-5.83-7.9-11.93-9.18-19.17Z"/>
  <path class="cls-12" d="M346.84,308.34c-3.5,9.7-7.57,9.5-12.13.7,4.04-.23,8.09-.47,12.13-.7Z"/>
  <path class="cls-43" d="M636.62,226.96c-4.36,1.68-7.03,6.65-12.39,6.38,3.45-3.45,3.81-12.89,12.39-6.38Z"/>
  <path class="cls-15" d="M481.85,334.63c-3.55.13-7.11.26-10.66.39,3.36-5.33,6.68-11.96,10.66-.39Z"/>
  <path class="cls-43" d="M639.93,239.49c-2.12-3.91-3.82-7.93-3.31-12.53,3.56,3.44,6.14,7.41,6.75,12.45-1.15.03-2.29.05-3.44.08Z"/>
  <path class="cls-36" d="M576.31,223.67c-.06,1.17-.11,2.35-.17,3.52-3.17-3.28-6.35-6.55-9.52-9.83,4.7-.16,7.81,2.13,9.68,6.31Z"/>
  <path class="cls-45" d="M353.5,217.27c3.73,2.05.42,4.27.15,6.41,0,1.06,0,2.12-.01,3.17-1.81,0-3.62.01-5.43.02,1.76-3.2,3.53-6.4,5.29-9.61Z"/>
  <path class="cls-40" d="M484,198.23c1.77-4.06,4.78-6.33,9.28-6.47-2.46,3.69-4.41,7.89-9.26,9.17-.01-.9-.02-1.8-.02-2.7Z"/>
  <path class="cls-1" d="M727.07,455.37c.35,13.93-9.35,16.19-21.12,17.05-16.06,1.21-10.43-9.96-11.07-14.73-.8-11.39-2.13-19.66,11.58-18.45,11.13.99,20.29,3.34,20.61,16.13Z"/>
  <path class="cls-26" d="M696.92,382.79c-52.93-.04-105.86-.09-158.8-.14,1.7-2.42,1.87-7.28,5.7-6.58,43.92,7.98,88.2,1.14,132.24,3.47,10.16.54,13.33-2.62,6.17-11.25-8.41-10.14-10.61-24.6-23.14-32.05-3.21-1.91-6.47-3.97-1.91-11.63,5.83-9.79-10.05-5.08-14.73-12.51,1.89-5.52,5.04-13.27,3.78-21.61,0,0,.06-.06.06-.06,1.3-.99,2.69-1.22,4.22-.58,14.35,15.96,19.33,37.02,29.99,54.99,2.31,4.38,4.46,8.84,6.64,13.28,1.69,3.63,3.42,7.24,5.36,10.75,1.61,3.52,4.25,6.62,4.5,10.71-.03,1.07-.05,2.14-.08,3.21Z"/>
  <path class="cls-50" d="M697,379.58c-4.13-1.87-6.21-5.06-6.22-9.6-.86-4.61-2.34-8.98-5.07-12.87-2.34-2.92-3.34-6.48-4.76-9.84-8.05-14.28-15.44-28.88-21.9-43.93-2.28-5.3-5.5-10.69-.07-16.06,19.22,26.01,31.6,55.94,47.76,83.71,6.92,11.9-5.33,6.92-9.75,8.6Z"/>
  <path class="cls-5" d="M623.94,239.63c7.09-.06,11.4,8.24,19.1,6.35,4.86,7.73,20.26,7.9,15.94,22.22-1.32,7.1-4.24,12.1-12.77,9.66-13.02-9.48-16.71-24.4-22.26-38.23Z"/>
  <path class="cls-6" d="M658.98,287.27c.58,23.47,15.58,40.87,25.43,60.44-2.06,1.93-4.13,1.79-6.2.01-9.6-19.07-19.2-38.15-28.8-57.22-.38-7.47,4.14-7.59,9.55-6.37,0,1.05,0,2.1.02,3.14Z"/>
  <path class="cls-16" d="M658.96,284.13c-3.18,2.12-6.37,4.25-9.55,6.37-1.04-.04-2.08-.06-3.12-.07-.03-4.19-.06-8.38-.09-12.56,1.3-7.12,12.65-.97,12.77-9.66,0,5.31,0,10.62-.01,15.92Z"/>
  <path class="cls-28" d="M511.4,302.52c2.16,3.59.56,7.8-2.31,7.51-4.23-.43-.55-3.7.08-5.65.24-.75,1.4-1.2,2.22-1.86Z"/>
  <path class="cls-8" d="M550.84,175.96c0-1.06,0-2.11,0-3.17,3.4.41,6.8.83,10.2,1.24-.21.92-.13,2.12-.69,2.72-3.42,3.67-6.38.18-9.51-.78Z"/>
  <path class="cls-35" d="M439.55,293.57c.06,8.53-2.81,14.72-12.41,15.5-1.06-11.02.33-21.57,5.96-31.32,2.15,5.27,4.3,10.54,6.45,15.82Z"/>
  <path class="cls-49" d="M429.98,245.95c0,1.06,0,2.11,0,3.17-1.05,5.28-2.11,10.57-3.16,15.85-5.32-5.27-8.21-11.75-9.53-19.02,4.23,1.14,8.47-5.75,12.69,0Z"/>
  <path class="cls-24" d="M416.85,288.47c-.31,2.25-1.19,4.34-3.78,3.85-2.74-.52-4.46-2.62-4.81-5.49-.27-2.21.16-4.51,2.85-4.56,3.93-.07,5.12,2.92,5.74,6.2Z"/>
  <path class="cls-37" d="M372.73,195.05c5.31-.87,9.67-6.51,15.83-3.17,3.42,8.36,10.07,15.49,9.67,25.31-.59,2.44-.89,6.87-1.82,7-8.94,1.31-25.47-19.37-23.68-29.15Z"/>
  <path class="cls-51" d="M678.21,347.72c2.07,0,4.14,0,6.2-.01,1.06,3.18,2.12,6.37,3.19,9.55,1.29,3.34-.28,3.86-3.11,3.15-2.09-4.23-4.19-8.46-6.28-12.69Z"/>
  <path class="cls-11" d="M684.5,360.41c1.04-1.05,2.07-2.1,3.11-3.15,4.56,3.36,5.99,7.51,3.18,12.71-2.1-3.19-4.19-6.37-6.29-9.56Z"/>
</svg>